<svg version="1.1" xmlns="http://www.w3.org/2000/svg" xmlns:xlink="http://www.w3.org/1999/xlink" width="79.63018035888672" height="34.970001220703125"><defs></defs><g transform="translate(-46.312950134277344,17.979999542236328)"><rect fill="rgb(0,0,0)" stroke="none" x="0" y="0" width="79.63018035888672" height="34.970001220703125" fill-opacity="0" transform="translate(46.312950134277344,-17.979999542236328)"></rect><g transform="translate(40.80629836754465,17.5) rotate(0,0,0) translate(-40.80629836754465,-17.5) matrix(1,0,-0.2679491924311227,1,40.80629836754465,17.5)"><path fill="rgb(255,255,255)" fill-opacity="1" d="M27.59-1.21L27.59-1.21L27.59-9.79Q23.13-6.74 21.40-5.76L21.40-5.76Q17.37-3.55 14.32-3.55L14.32-3.55Q10.67-3.55 8.04-6.23L8.04-6.23Q5.37-8.99 5.37-12.55L5.37-12.55Q5.60-16.30 6.96-20.15L6.96-20.15Q9.78-28.30 16.29-32.10L16.29-32.10Q19.53-34.02 23.74-34.02L23.74-34.02Q23.84-34.02 23.93-34.02L23.93-34.02L25.20-34.07Q27.35-34.07 27.17-32.38L27.17-32.38Q23.42-32.20 20.13-30.65Q16.85-29.10 14.44-26.50Q12.03-23.90 10.64-20.43Q9.26-16.96 9.26-13.35Q9.26-9.74 11.13-8.15Q13.01-6.55 15.96-6.55L15.96-6.55Q18.49-6.55 22.99-8.76L22.99-8.76Q25.85-10.16 27.26-11.95L27.26-11.95Q27.96-12.79 27.96-13.73L27.96-13.73L27.96-20.66Q26.56-20.66 21.42-19.59Q16.29-18.51 15.49-18.37L15.49-18.37Q15.26-18.51 14.93-18.67Q14.60-18.84 14.56-19.16L14.56-19.16Q14.46-19.87 16.62-21.32L16.62-21.32Q17.13-21.60 22.81-22.42Q28.48-23.24 30.03-23.48Q31.57-23.71 32.60-23.85L32.60-23.85Q33.07-23.76 33.78-23.88Q34.48-23.99 35.09-23.95L35.09-23.95Q36.59-23.90 36.49-22.30L36.49-22.30L32.60-20.71Q31.71-17.85 31.71-9.93L31.71-9.93L31.81-2.95Q31.81-2.01 31.81-1.21L31.81-1.21Q30.40-0.51 29.09-0.51Q27.78-0.51 27.59-1.21ZM43.34-11.34L43.34-11.34L43.53-7.91Q43.53-7.63 43.50-6.88Q43.48-6.13 42.94-5.55Q42.40-4.96 41.63-4.96Q40.85-4.96 40.43-5.01L40.43-5.01Q38.88-5.01 38.88-6.37L38.88-6.37Q38.88-7.49 39.92-15.44Q40.95-23.38 41.23-25.68Q41.51-27.98 41.72-29.55Q41.93-31.12 42.03-31.87Q42.12-32.62 42.31-33.37Q42.49-34.12 42.87-34.59L42.87-34.59Q43.57-35.48 45.59-35.48L45.59-35.48Q48.96-33.79 52.53-25.91L52.53-25.91Q55.06-20.29 55.90-18.79Q56.74-17.29 57.54-16.73L57.54-16.73L66.92-33.04Q67.90-33.74 68.42-33.74L68.42-33.74Q69.92-33.74 70.71-32.38Q71.51-31.02 72.05-29.08Q72.59-27.13 72.99-24.79Q73.38-22.45 73.69-19.89Q73.99-17.34 74.28-14.90L74.28-14.90Q74.93-9.04 75.28-7.54Q75.63-6.04 75.63-5.41Q75.63-4.77 75.21-4.19Q74.79-3.60 74.04-3.60Q73.29-3.60 72.54-4.19Q71.79-4.77 71.63-5.64Q71.46-6.51 71.30-7.91Q71.13-9.32 70.90-11.08Q70.67-12.84 70.43-14.78Q70.20-16.73 69.96-18.51Q69.73-20.29 69.54-21.67Q69.35-23.05 69.26-23.76L69.26-23.76Q69.26-24.70 69.21-25.49Q69.17-26.29 68.84-26.48Q68.51-26.66 67.83-26.03Q67.15-25.40 65.93-23.48L65.93-23.48Q63.31-19.40 58.34-9.74L58.34-9.74Q57.68-8.57 56.60-9.23L56.60-9.23Q55.34-9.93 54.45-12.84L54.45-12.84L45.82-31.16Q44.70-28.91 43.76-16.26L43.76-16.26Q43.62-14.71 43.57-13.63L43.57-13.63Q43.34-12.46 43.34-11.34Z"></path></g></g></svg>